<?xml version="1.0" encoding="UTF-8" standalone="no"?>
<svg
   xmlns:osb="http://www.openswatchbook.org/uri/2009/osb"
   xmlns:dc="http://purl.org/dc/elements/1.1/"
   xmlns:cc="http://creativecommons.org/ns#"
   xmlns:rdf="http://www.w3.org/1999/02/22-rdf-syntax-ns#"
   xmlns:svg="http://www.w3.org/2000/svg"
   xmlns="http://www.w3.org/2000/svg"
   xmlns:xlink="http://www.w3.org/1999/xlink"
   xmlns:sodipodi="http://sodipodi.sourceforge.net/DTD/sodipodi-0.dtd"
   xmlns:inkscape="http://www.inkscape.org/namespaces/inkscape"
   version="1.1"
   id="svg2"
   height="144"
   width="144"
   inkscape:version="0.91 r13725"
   sodipodi:docname="cameraSettings.svg">
  <sodipodi:namedview
     pagecolor="#ffffff"
     bordercolor="#666666"
     borderopacity="1"
     objecttolerance="10"
     gridtolerance="10"
     guidetolerance="10"
     inkscape:pageopacity="0"
     inkscape:pageshadow="2"
     inkscape:window-width="1360"
     inkscape:window-height="695"
     id="namedview84"
     showgrid="false"
     inkscape:zoom="3.7361111"
     inkscape:cx="72"
     inkscape:cy="72"
     inkscape:window-x="0"
     inkscape:window-y="0"
     inkscape:window-maximized="1"
     inkscape:current-layer="svg2" />
  <defs
     id="defs4">
    <pattern
       patternTransform="matrix(9.7946387,0,0,9.7946387,-133.87541,-426.87981)"
       id="pattern5000"
       xlink:href="#Strips1_2white" />
    <pattern
       patternUnits="userSpaceOnUse"
       width="3"
       height="1"
       patternTransform="translate(0,0) scale(10,10)"
       id="Strips1_2white">
      <rect
         style="fill:white;stroke:none"
         x="0"
         y="-0.5"
         width="1"
         height="2"
         id="rect5184" />
    </pattern>
    <linearGradient
       osb:paint="solid"
       id="linearGradient4444">
      <stop
         id="stop4446"
         offset="0"
         style="stop-color:#786721;stop-opacity:1;" />
    </linearGradient>
    <clipPath
       id="clipPath4348"
       clipPathUnits="userSpaceOnUse">
      <path
         id="path4350"
         d="m 286.24023,136.08398 0,114.46875 40.02539,0 a 52.801001,53.342306 0 0 1 -13.49218,-35.51757 52.801001,53.342306 0 0 1 52.80273,-53.34375 52.801001,53.342306 0 0 1 52.80078,53.34375 52.801001,53.342306 0 0 1 -13.48242,35.51757 l 38.41797,0 0,-114.46875 -157.07227,0 z"
         style="opacity:1;fill:#ff00ff;fill-opacity:1;stroke:none;stroke-width:15;stroke-linecap:square;stroke-linejoin:miter;stroke-miterlimit:4;stroke-dasharray:none;stroke-opacity:1" />
    </clipPath>
  </defs>
  <metadata
     id="metadata7">
    <rdf:RDF>
      <cc:Work
         rdf:about="">
        <dc:format>image/svg+xml</dc:format>
        <dc:type
           rdf:resource="http://purl.org/dc/dcmitype/StillImage" />
        <dc:title />
      </cc:Work>
    </rdf:RDF>
  </metadata>
  <g
     id="g4278"
     transform="matrix(0.97390583,0,0,0.97390583,-138.05914,-416.32035)">
    <path
       inkscape:connector-curvature="0"
       style="opacity:1;fill:#ffffff;fill-opacity:1;stroke:none;stroke-width:15;stroke-linecap:square;stroke-linejoin:miter;stroke-miterlimit:4;stroke-dasharray:none;stroke-opacity:1"
       d="m 239.19416,432.29345 0,10.34546 a 30.097467,30.097467 0 0 0 -6.40722,2.68146 l -7.33491,-7.3349 -11.63021,11.63023 7.31728,7.31727 a 30.097467,30.097467 0 0 0 -2.64518,6.42484 l -10.36412,0 0,16.44794 10.34494,0 a 30.097467,30.097467 0 0 0 2.68198,6.40723 l -7.3349,7.3349 11.63021,11.63022 7.31729,-7.31729 a 30.097467,30.097467 0 0 0 6.42484,2.6452 l 0,10.36463 16.44794,0 0,-10.34547 a 30.097467,30.097467 0 0 0 6.40722,-2.68198 l 7.33491,7.33491 11.63021,-11.63022 -7.31779,-7.31781 a 30.097467,30.097467 0 0 0 2.64569,-6.42432 l 10.36412,0 0,-16.44794 -10.34545,0 a 30.097467,30.097467 0 0 0 -2.68147,-6.40722 l 7.3349,-7.33489 -11.63021,-11.63023 -7.31781,7.3178 a 30.097467,30.097467 0 0 0 -6.42432,-2.6457 l 0,-10.36412 -16.44794,0 z m 8.22423,22.09488 a 17.19359,17.19359 0 0 1 17.1932,17.19371 17.19359,17.19359 0 0 1 -17.1932,17.19372 17.19359,17.19359 0 0 1 -17.19372,-17.19372 17.19359,17.19359 0 0 1 17.19372,-17.19371 z"
       id="path4241" />
    <g
       transform="matrix(0.84830987,0,0,0.84830987,137.32345,100.81036)"
       id="g4272">
      <path
         inkscape:connector-curvature="0"
         id="path4274"
         d="m 58.175781,454.85156 -9.765625,16.79297 -23.53125,0 c -8.958762,0 -16.1718747,7.21116 -16.1718748,16.16992 l 0,55.35547 c 1e-7,8.95876 7.2131128,16.17188 16.1718748,16.17188 l 94.123044,0 c 8.95877,0 16.17188,-7.21312 16.17188,-16.17188 l 0,-55.35547 c 0,-8.95876 -7.21311,-16.16992 -16.17188,-16.16992 l -23.531247,0 -9.765625,-16.79297 -13.763672,0 -13.765625,0 z m 43.619139,25.57422 26.95117,0 0,14.09375 -26.95117,0 0,-14.09375 z m -29.853514,4.69531 a 31.720137,31.720137 0 0 1 31.718754,31.71875 31.720137,31.720137 0 0 1 -31.718754,31.72071 31.720137,31.720137 0 0 1 -31.720703,-31.72071 31.720137,31.720137 0 0 1 31.720703,-31.71875 z"
         style="opacity:1;fill:#ffffff;fill-opacity:1;stroke:none;stroke-width:3;stroke-linecap:round;stroke-linejoin:round;stroke-miterlimit:4;stroke-dasharray:none;stroke-opacity:1" />
      <circle
         r="23.738272"
         cy="517.09668"
         cx="71.94043"
         id="circle4276"
         style="opacity:1;fill:#ffffff;fill-opacity:1;stroke:none;stroke-width:3;stroke-linecap:round;stroke-linejoin:round;stroke-miterlimit:4;stroke-dasharray:none;stroke-opacity:1" />
    </g>
  </g>
  <g
     transform="translate(-144,-432)"
     style="display:none"
     id="layer3">
    <rect
       style="opacity:0.43800001;fill:#bcbcbc;fill-opacity:1;stroke:none;stroke-width:0;stroke-linecap:round;stroke-linejoin:round;stroke-miterlimit:4;stroke-dasharray:none;stroke-opacity:1"
       id="wp"
       width="144"
       height="144"
       x="0"
       y="-4.9999999e-06" />
    <rect
       y="-4.9999999e-06"
       x="144"
       height="144"
       width="144"
       id="circle"
       style="opacity:0.43800001;fill:#bcbcbc;fill-opacity:1;stroke:none;stroke-width:0;stroke-linecap:round;stroke-linejoin:round;stroke-miterlimit:4;stroke-dasharray:none;stroke-opacity:1" />
    <rect
       style="opacity:0.43800001;fill:#bcbcbc;fill-opacity:1;stroke:none;stroke-width:0;stroke-linecap:round;stroke-linejoin:round;stroke-miterlimit:4;stroke-dasharray:none;stroke-opacity:1"
       id="takeoff"
       width="144"
       height="144"
       x="288"
       y="-4.9999999e-06" />
    <rect
       y="-4.9999999e-06"
       x="432"
       height="144"
       width="144"
       id="land"
       style="opacity:0.43800001;fill:#bcbcbc;fill-opacity:1;stroke:none;stroke-width:0;stroke-linecap:round;stroke-linejoin:round;stroke-miterlimit:4;stroke-dasharray:none;stroke-opacity:1" />
    <rect
       y="432"
       x="0"
       height="144"
       width="144"
       id="camera_trigger"
       style="opacity:0.43800001;fill:#bcbcbc;fill-opacity:1;stroke:none;stroke-width:0;stroke-linecap:round;stroke-linejoin:round;stroke-miterlimit:4;stroke-dasharray:none;stroke-opacity:1" />
    <rect
       style="opacity:0.43800001;fill:#bcbcbc;fill-opacity:1;stroke:none;stroke-width:0;stroke-linecap:round;stroke-linejoin:round;stroke-miterlimit:4;stroke-dasharray:none;stroke-opacity:1"
       id="camera_details"
       width="144"
       height="144"
       x="144"
       y="432" />
    <rect
       y="432"
       x="288"
       height="144"
       width="144"
       id="set_servo"
       style="opacity:0.43800001;fill:#bcbcbc;fill-opacity:1;stroke:none;stroke-width:0;stroke-linecap:round;stroke-linejoin:round;stroke-miterlimit:4;stroke-dasharray:none;stroke-opacity:1" />
    <rect
       style="opacity:0.43800001;fill:#bcbcbc;fill-opacity:1;stroke:none;stroke-width:0;stroke-linecap:round;stroke-linejoin:round;stroke-miterlimit:4;stroke-dasharray:none;stroke-opacity:1"
       id="spline"
       width="144"
       height="144"
       x="432"
       y="432" />
    <rect
       style="opacity:0.43800001;fill:#bcbcbc;fill-opacity:1;stroke:none;stroke-width:0;stroke-linecap:round;stroke-linejoin:round;stroke-miterlimit:4;stroke-dasharray:none;stroke-opacity:1"
       id="command"
       width="144"
       height="144"
       x="0"
       y="288" />
    <rect
       y="288"
       x="144"
       height="144"
       width="144"
       id="change_speed"
       style="opacity:0.43800001;fill:#bcbcbc;fill-opacity:1;stroke:none;stroke-width:0;stroke-linecap:round;stroke-linejoin:round;stroke-miterlimit:4;stroke-dasharray:none;stroke-opacity:1" />
    <rect
       style="opacity:0.43800001;fill:#bcbcbc;fill-opacity:1;stroke:none;stroke-width:0;stroke-linecap:round;stroke-linejoin:round;stroke-miterlimit:4;stroke-dasharray:none;stroke-opacity:1"
       id="epm_gripper"
       width="144"
       height="144"
       x="288"
       y="288" />
    <rect
       y="288"
       x="432"
       height="144"
       width="144"
       id="yaw_cond"
       style="opacity:0.43800001;fill:#bcbcbc;fill-opacity:1;stroke:none;stroke-width:0;stroke-linecap:round;stroke-linejoin:round;stroke-miterlimit:4;stroke-dasharray:none;stroke-opacity:1" />
    <rect
       y="144"
       x="0"
       height="144"
       width="144"
       id="rtl"
       style="opacity:0.43800001;fill:#bcbcbc;fill-opacity:1;stroke:none;stroke-width:0;stroke-linecap:round;stroke-linejoin:round;stroke-miterlimit:4;stroke-dasharray:none;stroke-opacity:1" />
    <rect
       style="opacity:0.43800001;fill:#bcbcbc;fill-opacity:1;stroke:none;stroke-width:0;stroke-linecap:round;stroke-linejoin:round;stroke-miterlimit:4;stroke-dasharray:none;stroke-opacity:1"
       id="roi"
       width="144"
       height="144"
       x="144"
       y="144" />
    <rect
       y="144"
       x="288"
       height="144"
       width="144"
       id="structure_scanner"
       style="opacity:0.43800001;fill:#bcbcbc;fill-opacity:1;stroke:none;stroke-width:0;stroke-linecap:round;stroke-linejoin:round;stroke-miterlimit:4;stroke-dasharray:none;stroke-opacity:1" />
    <rect
       style="opacity:0.43800001;fill:#bcbcbc;fill-opacity:1;stroke:none;stroke-width:0;stroke-linecap:round;stroke-linejoin:round;stroke-miterlimit:4;stroke-dasharray:none;stroke-opacity:1"
       id="survey"
       width="144"
       height="144"
       x="432"
       y="144" />
  </g>
</svg>
